[Header]
FileType HTR
DataType HTRS
FileVersion 1
NumSegments 64
NumFrames 4
DataFrameRate 30
EulerRotationOrder ZYX
CalibrationUnits mm
RotationUnits Degrees
GlobalAxisofGravity Y
BoneLengthAxis Y
ScaleFactor 1.0
[SegmentNames&Hierarchy]
Hips	GLOBAL
Spine	Hips
Spine1	Spine
Spine2	Spine1
Neck	Spine2
Head	Neck
LeftEye	Head
RightEye	Head
LeftShoulder	Spine2
LeftArm	LeftShoulder
LeftForeArm	LeftArm
LeftHand	LeftForeArm
LeftHandThumb1	LeftHand
LeftHandThumb2	LeftHandThumb1
LeftHandThumb3	LeftHandThumb2
LeftHandThumb4	LeftHandThumb3
LeftHandIndex1	LeftHand
LeftHandIndex2	LeftHandIndex1
LeftHandIndex3	LeftHandIndex2
LeftHandIndex4	LeftHandIndex3
LeftHandMiddle1	LeftHand
LeftHandMiddle2	LeftHandMiddle1
LeftHandMiddle3	LeftHandMiddle2
LeftHandMiddle4	LeftHandMiddle3
LeftHandRing1	LeftHand
LeftHandRing2	LeftHandRing1
LeftHandRing3	LeftHandRing2
LeftHandRing4	LeftHandRing3
LeftHandPinky1	LeftHand
LeftHandPinky2	LeftHandPinky1
LeftHandPinky3	LeftHandPinky2
LeftHandPinky4	LeftHandPinky3
RightShoulder	Spine2
RightArm	RightShoulder
RightForeArm	RightArm
RightHand	RightForeArm
RightHandPinky1	RightHand
RightHandPinky2	RightHandPinky1
RightHandPinky3	RightHandPinky2
RightHandPinky4	RightHandPinky3
RightHandRing1	RightHand
RightHandRing2	RightHandRing1
RightHandRing3	RightHandRing2
RightHandRing4	RightHandRing3
RightHandMiddle1	RightHand
RightHandMiddle2	RightHandMiddle1
RightHandMiddle3	RightHandMiddle2
RightHandMiddle4	RightHandMiddle3
RightHandIndex1	RightHand
RightHandIndex2	RightHandIndex1
RightHandIndex3	RightHandIndex2
RightHandIndex4	RightHandIndex3
RightHandThumb1	RightHand
RightHandThumb2	RightHandThumb1
RightHandThumb3	RightHandThumb2
RightHandThumb4	RightHandThumb3
LeftUpLeg	Hips
LeftLeg	LeftUpLeg
LeftFoot	LeftLeg
LeftToeBase	LeftFoot
RightUpLeg	Hips
RightLeg	RightUpLeg
RightFoot	RightLeg
RightToeBase	RightFoot
[BasePosition]
Hips	0	0	0	0	0	0	1
Spine	0	0	0	0	0	0	1
Spine1	0	0	0	0	0	0	1
Spine2	0	0	0	0	0	0	1
Neck	0	0	0	0	0	0	1
Head	0	0	0	0	0	0	1
LeftEye	0	0	0	0	0	0	1
RightEye	0	0	0	0	0	0	1
LeftShoulder	0	0	0	0	0	0	1
LeftArm	0	0	0	0	0	0	1
LeftForeArm	0	0	0	0	0	0	1
LeftHand	0	0	0	0	0	0	1
LeftHandThumb1	0	0	0	0	0	0	1
LeftHandThumb2	0	0	0	0	0	0	1
LeftHandThumb3	0	0	0	0	0	0	1
LeftHandThumb4	0	0	0	0	0	0	1
LeftHandIndex1	0	0	0	0	0	0	1
LeftHandIndex2	0	0	0	0	0	0	1
LeftHandIndex3	0	0	0	0	0	0	1
LeftHandIndex4	0	0	0	0	0	0	1
LeftHandMiddle1	0	0	0	0	0	0	1
LeftHandMiddle2	0	0	0	0	0	0	1
LeftHandMiddle3	0	0	0	0	0	0	1
LeftHandMiddle4	0	0	0	0	0	0	1
LeftHandRing1	0	0	0	0	0	0	1
LeftHandRing2	0	0	0	0	0	0	1
LeftHandRing3	0	0	0	0	0	0	1
LeftHandRing4	0	0	0	0	0	0	1
LeftHandPinky1	0	0	0	0	0	0	1
LeftHandPinky2	0	0	0	0	0	0	1
LeftHandPinky3	0	0	0	0	0	0	1
LeftHandPinky4	0	0	0	0	0	0	1
RightShoulder	0	0	0	0	0	0	1
RightArm	0	0	0	0	0	0	1
RightForeArm	0	0	0	0	0	0	1
RightHand	0	0	0	0	0	0	1
RightHandPinky1	0	0	0	0	0	0	1
RightHandPinky2	0	0	0	0	0	0	1
RightHandPinky3	0	0	0	0	0	0	1
RightHandPinky4	0	0	0	0	0	0	1
RightHandRing1	0	0	0	0	0	0	1
RightHandRing2	0	0	0	0	0	0	1
RightHandRing3	0	0	0	0	0	0	1
RightHandRing4	0	0	0	0	0	0	1
RightHandMiddle1	0	0	0	0	0	0	1
RightHandMiddle2	0	0	0	0	0	0	1
RightHandMiddle3	0	0	0	0	0	0	1
RightHandMiddle4	0	0	0	0	0	0	1
RightHandIndex1	0	0	0	0	0	0	1
RightHandIndex2	0	0	0	0	0	0	1
RightHandIndex3	0	0	0	0	0	0	1
RightHandIndex4	0	0	0	0	0	0	1
RightHandThumb1	0	0	0	0	0	0	1
RightHandThumb2	0	0	0	0	0	0	1
RightHandThumb3	0	0	0	0	0	0	1
RightHandThumb4	0	0	0	0	0	0	1
LeftUpLeg	0	0	0	0	0	0	1
LeftLeg	0	0	0	0	0	0	1
LeftFoot	0	0	0	0	0	0	1
LeftToeBase	0	0	0	0	0	0	1
RightUpLeg	0	0	0	0	0	0	1
RightLeg	0	0	0	0	0	0	1
RightFoot	0	0	0	0	0	0	1
RightToeBase	0	0	0	0	0	0	1
[Hips]
672	-45.17609406	1010.991333	39.66810608	173.4732819	172.5391846	-544.8147583	1.0
673	-35.163414	1002.629517	14.61709976	172.723465	178.6260681	-542.1585693	1.0
674	-26.191185	991.8789673	-9.606184959	171.3846588	182.6483917	-539.6515503	1.0
675	-19.2303257	979.9562988	-28.79555702	170.2171021	186.3741302	-538.277771	1.0
[Spine]
672	0	101.8159943	1.315000057	12.72751427	4.971899033	8.336964607	1.0
673	0	101.8159943	1.315000057	17.80732918	0.9618760347	3.739036798	1.0
674	0	101.8159943	1.315000057	23.01677132	-4.075810432	-2.415602207	1.0
675	0	101.8159943	1.315000057	26.13242531	-8.036030769	-7.026708126	1.0
[Spine1]
672	0	100.8349991	-10.00800037	-0.9506186843	1.031327844	-7.759561539	1.0
673	0	100.8349991	-10.00800037	-2.593698502	0.453941077	-7.333292007	1.0
674	0	100.8349991	-10.00800037	-3.808459282	-0.300390929	-6.383717537	1.0
675	0	100.8349991	-10.00800037	-3.97437048	-0.8930378556	-5.773679256	1.0
[Spine2]
672	0	91	-13.73399925	-0.820910275	0.8913623691	-7.791765213	1.0
673	0	91	-13.73399925	-2.523409843	0.2404582053	-7.354982376	1.0
674	0	91	-13.73399925	-3.808019638	-0.5832107067	-6.354439735	1.0
675	0	91	-13.73399925	-4.015492439	-1.215842724	-5.676987171	1.0
[Neck]
672	0	166.7169952	-25.16200066	-3.386922121	0.309835881	-2.76373744	1.0
673	0	166.7169952	-25.16200066	-6.217082024	1.791101694	-0.6060014367	1.0
674	0	166.7169952	-25.16200066	-9.028355598	3.27630806	1.48374331	1.0
675	0	166.7169952	-25.16200066	-11.28541565	4.494669914	3.023507118	1.0
[Head]
672	0	96.17900085	16.84999847	-14.63019562	-1.293789744	9.068122864	1.0
673	0	96.17900085	16.84999847	-15.26943016	8.50892067	7.299386501	1.0
674	0	96.17900085	16.84999847	-16.56804276	17.85705948	5.907899857	1.0
675	0	96.17900085	16.84999847	-18.82613373	25.18677521	5.382778645	1.0
[LeftEye]
672	30.6760006	64.09500122	92.83599854	0	0	0	1.0
673	30.6760006	64.09500122	92.83599854	0	0	0	1.0
674	30.6760006	64.09500122	92.83599854	0	0	0	1.0
675	30.6760006	64.09500122	92.83599854	0	0	0	1.0
[RightEye]
672	-30.6760006	64.09500122	92.83499908	0	0	0	1.0
673	-30.6760006	64.09500122	92.83499908	0	0	0	1.0
674	-30.6760006	64.09500122	92.83499908	0	0	0	1.0
675	-30.6760006	64.09500122	92.83499908	0	0	0	1.0
[LeftShoulder]
672	45.70400238	109.4599991	-26.28000069	0.4387159348	0.6720705032	-8.409200668	1.0
673	45.70400238	109.4599991	-26.28000069	-0.1806899905	4.393128395	-12.32125854	1.0
674	45.70400238	109.4599991	-26.28000069	-0.7207912803	6.584671021	-16.49795151	1.0
675	45.70400238	109.4599991	-26.28000069	-0.7091491818	6.115057945	-21.49903297	1.0
[LeftArm]
672	105.923996	-5.24600029	-22.32099915	19.58851051	34.79727936	-18.42360687	1.0
673	105.923996	-5.24600029	-22.32099915	17.32328987	33.13707733	-24.42713928	1.0
674	105.923996	-5.24600029	-22.32099915	13.44805908	28.34259796	-29.38336182	1.0
675	105.923996	-5.24600029	-22.32099915	12.75839996	23.5182476	-28.5051918	1.0
[LeftForeArm]
672	278.414978	-0.0009999999311	0	-1.228026349e-06	-23.82573891	-0.0002071573108	1.0
673	278.414978	-0.0009999999311	0	4.940175131e-06	-24.98264694	-0.0002124040911	1.0
674	278.414978	-0.0009999999311	0	3.166454235e-06	-23.81079292	-0.0002118500852	1.0
675	278.414978	-0.0009999999311	0	-4.78461061e-06	-25.13521767	-0.0002108514891	1.0
[LeftHand]
672	283.2879944	0	0	-14.39666176	12.30751705	-13.13582706	1.0
673	283.2879944	0	0	-5.846300602	22.28048325	-17.0111599	1.0
674	283.2879944	0	0	-7.570457935	27.22788239	-14.70771313	1.0
675	283.2879944	0	0	-15.91008472	27.73013306	-8.818325996	1.0
[LeftHandThumb1]
672	24.6609993	-15.75	26.8239994	4.872930527	2.863814116	-17.52120399	1.0
673	24.6609993	-15.75	26.8239994	5.822866917	6.327366829	-14.18985558	1.0
674	24.6609993	-15.75	26.8239994	5.328527927	8.691790581	-8.825259209	1.0
675	24.6609993	-15.75	26.8239994	3.175861359	9.037471771	-2.365432739	1.0
[LeftHandThumb2]
672	32.29800034	-18.64699936	18.64699936	1.18866992	-0.1740629226	-1.057005525	1.0
673	32.29800034	-18.64699936	18.64699936	1.187111616	-0.1730962247	-1.05774045	1.0
674	32.29800034	-18.64699936	18.64699936	1.188862324	-0.1741537154	-1.058131337	1.0
675	32.29800034	-18.64699936	18.64699936	1.19356668	-0.1769743264	-1.058043718	1.0
[LeftHandThumb3]
672	26.52600098	-15.31499958	15.31499958	0.8831248283	-3.871630907	4.102880955	1.0
673	26.52600098	-15.31499958	15.31499958	0.726069212	-3.452169657	3.964725256	1.0
674	26.52600098	-15.31499958	15.31499958	0.06029694527	-2.993711472	3.775094509	1.0
675	26.52600098	-15.31499958	15.31499958	-0.8974607587	-2.563415051	3.573111057	1.0
[LeftHandThumb4]
672	19.54599953	-11.28499985	11.28499985	0	0	0	1.0
673	19.54599953	-11.28499985	11.28499985	0	0	0	1.0
674	19.54599953	-11.28499985	11.28499985	0	0	0	1.0
675	19.54599953	-11.28499985	11.28499985	0	0	0	1.0
[LeftHandIndex1]
672	91.09299469	-5.170999527	22.60099792	-0.7381151319	3.072799683	-26.71583176	1.0
673	91.09299469	-5.170999527	22.60099792	-0.3228805065	3.155437231	-17.5863266	1.0
674	91.09299469	-5.170999527	22.60099792	-0.05149305612	1.480408788	-6.679105759	1.0
675	91.09299469	-5.170999527	22.60099792	-0.01393616665	-1.566627741	4.961079597	1.0
[LeftHandIndex2]
672	36.76399994	0	0	-0.001362162642	0.1277824789	-1.062941074	1.0
673	36.76399994	0	0	0.0001040440766	0.02496574633	-0.2075904459	1.0
674	36.76399994	0	0	3.245164407e-05	-0.003746157046	0.03117318824	1.0
675	36.76399994	0	0	-1.15842231e-05	0.002663406543	-0.02217308804	1.0
[LeftHandIndex3]
672	28.83100128	0	0	-0.04897107184	0.8198387027	-6.836044788	1.0
673	28.83100128	0	0	-0.05304054543	0.8531259894	-7.114974976	1.0
674	28.83100128	0	0	-0.05764021352	0.8891103268	-7.416790009	1.0
675	28.83100128	0	0	-0.06176268309	0.9203283787	-7.67883873	1.0
[LeftHandIndex4]
672	23.92700005	0	0	0	0	0	1.0
673	23.92700005	0	0	0	0	0	1.0
674	23.92700005	0	0	0	0	0	1.0
675	23.92700005	0	0	0	0	0	1.0
[LeftHandMiddle1]
672	95.33399963	0	0	-0.8295708299	4.636897564	-28.41490746	1.0
673	95.33399963	0	0	-0.4309808314	5.071001053	-20.53705406	1.0
674	95.33399963	0	0	-0.1178959832	4.49930191	-10.76962662	1.0
675	95.33399963	0	0	0.01234710496	2.982236147	-0.0721526891	1.0
[LeftHandMiddle2]
672	36.98199844	0	0	-0.5178345442	2.621248484	-22.38570976	1.0
673	36.98199844	0	0	-0.239144519	1.793874502	-15.1081562	1.0
674	36.98199844	0	0	-0.06151285768	0.839441061	-7.001404285	1.0
675	36.98199844	0	0	0.006254994776	0.08173296601	-0.675262332	1.0
[LeftHandMiddle3]
672	29.50900078	0	0	-0.05963496119	0.9043473005	-7.544668674	1.0
673	29.50900078	0	0	-0.05969614163	0.904831171	-7.548735142	1.0
674	29.50900078	0	0	-0.05926002562	0.9015805721	-7.521486282	1.0
675	29.50900078	0	0	-0.05774970353	0.8900358677	-7.424638748	1.0
[LeftHandMiddle4]
672	28.3390007	0	0	0	0	0	1.0
673	28.3390007	0	0	0	0	0	1.0
674	28.3390007	0	0	0	0	0	1.0
675	28.3390007	0	0	0	0	0	1.0
[LeftHandRing1]
672	91.04499817	-0.4390000105	-18.65100098	-1.361041546	6.718748569	-36.70853424	1.0
673	91.04499817	-0.4390000105	-18.65100098	-0.7975303531	7.951302528	-28.21818924	1.0
674	91.04499817	-0.4390000105	-18.65100098	-0.2819948494	8.635754585	-17.27688217	1.0
675	91.04499817	-0.4390000105	-18.65100098	0.02816536464	8.211473465	-5.02084589	1.0
[LeftHandRing2]
672	31.54000092	0	0	-0.9731863737	3.529144287	-30.8666954	1.0
673	31.54000092	0	0	-0.5060220361	2.587735891	-22.09504128	1.0
674	31.54000092	0	0	-0.1702867448	1.458840132	-12.24019337	1.0
675	31.54000092	0	0	-0.005464876536	0.4356791079	-3.613077402	1.0
[LeftHandRing3]
672	29.37700081	0	0	-0.0667334795	0.9563748837	-7.981569767	1.0
673	29.37700081	0	0	-0.06807065755	0.9659503102	-8.062054634	1.0
674	29.37700081	0	0	-0.06867490709	0.9703044295	-8.098596573	1.0
675	29.37700081	0	0	-0.06756909937	0.9624322057	-8.032385826	1.0
[LeftHandRing4]
672	26.47500038	0	0	0	0	0	1.0
673	26.47500038	0	0	0	0	0	1.0
674	26.47500038	0	0	0	0	0	1.0
675	26.47500038	0	0	0	0	0	1.0
[LeftHandPinky1]
672	80.77799988	-4.887000084	-38.06099701	-2.71501708	13.10686207	-53.01843643	1.0
673	80.77799988	-4.887000084	-38.06099701	-1.638907552	16.44188881	-41.80962372	1.0
674	80.77799988	-4.887000084	-38.06099701	-0.5461081266	18.68757629	-27.03780174	1.0
675	80.77799988	-4.887000084	-38.06099701	0.2193510234	19.30465317	-10.27725124	1.0
[LeftHandPinky2]
672	36	0	0	0.7448527813	-2.413809776	-13.38754559	1.0
673	36	0	0	0.4262034893	-3.256006241	-6.933704853	1.0
674	36	0	0	0.1502777785	-3.826345921	-2.396467686	1.0
675	36	0	0	0.0038873218	-4.080787659	-0.2952781022	1.0
[LeftHandPinky3]
672	21.14200211	0	0	-0.04181397706	0.7578294873	-6.316730022	1.0
673	21.14200211	0	0	-0.04726176709	0.8055244088	-6.716033936	1.0
674	21.14200211	0	0	-0.0524340719	0.8482986689	-7.074484348	1.0
675	21.14200211	0	0	-0.05553626269	0.8729748726	-7.281436443	1.0
[LeftHandPinky4]
672	19.75699997	0	0	0	0	0	1.0
673	19.75699997	0	0	0	0	0	1.0
674	19.75699997	0	0	0	0	0	1.0
675	19.75699997	0	0	0	0	0	1.0
[RightShoulder]
672	-45.70000076	109.4620056	-26.28000069	-0.5773149729	1.665835977	-22.09057617	1.0
673	-45.70000076	109.4620056	-26.28000069	-0.698795259	0.5989196897	-29.54421234	1.0
674	-45.70000076	109.4620056	-26.28000069	-0.1950243264	-2.589267492	-31.74321365	1.0
675	-45.70000076	109.4620056	-26.28000069	0.496834904	-6.207257748	-30.51057243	1.0
[RightArm]
672	-105.9280014	-5.248000145	-22.32099915	-28.06743813	4.392056942	-12.22003174	1.0
673	-105.9280014	-5.248000145	-22.32099915	-25.36935425	-4.255702972	-10.80315876	1.0
674	-105.9280014	-5.248000145	-22.32099915	-29.16239929	-9.178805351	-10.37866116	1.0
675	-105.9280014	-5.248000145	-22.32099915	-36.07388306	-11.64083576	-7.928899288	1.0
[RightForeArm]
672	-278.414978	0	0	-2.280103899e-06	55.77050018	-8.602501111e-06	1.0
673	-278.414978	0	0	1.214190706e-05	61.12857437	1.291883109e-05	1.0
674	-278.414978	0	0	1.202743169e-05	64.87852478	1.183781842e-05	1.0
675	-278.414978	0	0	8.333441315e-07	68.01692963	-7.601412108e-06	1.0
[RightHand]
672	-283.2879944	0	0.0009999999311	-26.24872208	19.05771828	20.71045113	1.0
673	-283.2879944	0	0.0009999999311	-5.61207962	2.975888491	22.60566521	1.0
674	-283.2879944	0	0.0009999999311	13.46969509	-10.72825432	15.95215988	1.0
675	-283.2879944	0	0.0009999999311	27.78565407	-16.45351028	3.284070253	1.0
[RightHandPinky1]
672	-80.76699829	-4.885000229	-38.06000137	-5.598644257	-13.73696709	79.03926086	1.0
673	-80.76699829	-4.885000229	-38.06000137	-5.246034622	-15.23144436	76.1419754	1.0
674	-80.76699829	-4.885000229	-38.06000137	-4.371852875	-16.98756981	68.71710968	1.0
675	-80.76699829	-4.885000229	-38.06000137	-3.039964437	-18.34592628	56.61765671	1.0
[RightHandPinky2]
672	-36	0	0.0009999999311	-2.951146603	-5.675415993	54.95011139	1.0
673	-36	0	0.0009999999311	-2.77913332	-5.556447029	53.22149277	1.0
674	-36	0	0.0009999999311	-2.301451206	-5.155415535	48.05691528	1.0
675	-36	0	0.0009999999311	-1.61603272	-4.44490099	39.8582077	1.0
[RightHandPinky3]
672	-21.14200211	0	0	-0.05218167603	0.8507540226	-7.026145935	1.0
673	-21.14200211	0	0	-0.04698546976	0.8087234497	-6.677239895	1.0
674	-21.14200211	0	0	-0.03448357433	0.6923971772	-5.713469028	1.0
675	-21.14200211	0	0	-0.01774617285	0.4920782447	-4.057250023	1.0
[RightHandPinky4]
672	-19.75699997	0	0	0	0	0	1.0
673	-19.75699997	0	0	0	0	0	1.0
674	-19.75699997	0	0	0	0	0	1.0
675	-19.75699997	0	0	0	0	0	1.0
[RightHandRing1]
672	-91.03599548	-0.4390000105	-18.65100098	-3.990933657	-6.635509014	64.90398407	1.0
673	-91.03599548	-0.4390000105	-18.65100098	-3.743388176	-7.969875813	62.66416931	1.0
674	-91.03599548	-0.4390000105	-18.65100098	-3.08629179	-9.405531883	56.39492416	1.0
675	-91.03599548	-0.4390000105	-18.65100098	-2.058256149	-10.32142448	45.30994034	1.0
[RightHandRing2]
672	-31.54000092	0	0	-0.7191406488	-3.079535007	26.30446815	1.0
673	-31.54000092	0	0	-0.6472317576	-2.934996128	24.97340965	1.0
674	-31.54000092	0	0	-0.4687215388	-2.501648426	21.10560417	1.0
675	-31.54000092	0	0	-0.244607836	-1.820067048	15.17761803	1.0
[RightHandRing3]
672	-29.37700081	0	0	0.04271676391	0.01527178194	-0.1254967898	1.0
673	-29.37700081	0	0	0.3921422362	0.002711423207	-0.02215980925	1.0
674	-29.37700081	0	0	0.7662440538	-0.006238059141	0.05138205364	1.0
675	-29.37700081	0	0	0.9187624454	-0.01923056692	0.1584015936	1.0
[RightHandRing4]
672	-26.47500038	0	0	0	0	0	1.0
673	-26.47500038	0	0	0	0	0	1.0
674	-26.47500038	0	0	0	0	0	1.0
675	-26.47500038	0	0	0	0	0	1.0
[RightHandMiddle1]
672	-95.32500458	0	0	-3.374784946	0.2828671932	59.32857513	1.0
673	-95.32500458	0	0	-3.193535328	-1.280198932	57.5255928	1.0
674	-95.32500458	0	0	-2.558114767	-2.824339867	50.83843994	1.0
675	-95.32500458	0	0	-1.619705796	-3.810110331	39.75635147	1.0
[RightHandMiddle2]
672	-36.98199844	0	0	-0.5206398368	-2.640270948	22.32396507	1.0
673	-36.98199844	0	0	-0.4687436223	-2.514015436	21.19849586	1.0
674	-36.98199844	0	0	-0.3453885317	-2.159380198	18.10140228	1.0
675	-36.98199844	0	0	-0.1885228604	-1.601785779	13.31994438	1.0
[RightHandMiddle3]
672	-29.50900078	0	0	-1.277432799	0.01635726169	-0.1509969234	1.0
673	-29.50900078	0	0	-0.9585053921	-0.01316322666	0.09211660922	1.0
674	-29.50900078	0	0	-0.4719907641	-0.04465723038	0.3514330685	1.0
675	-29.50900078	0	0	-0.04281923175	-0.06707498431	0.5360643864	1.0
[RightHandMiddle4]
672	-28.3390007	0	0.0009999999311	0	0	0	1.0
673	-28.3390007	0	0.0009999999311	0	0	0	1.0
674	-28.3390007	0	0.0009999999311	0	0	0	1.0
675	-28.3390007	0	0.0009999999311	0	0	0	1.0
[RightHandIndex1]
672	-91.08300018	-5.167999744	22.60099792	-3.386452675	8.16857338	60.28659439	1.0
673	-91.08300018	-5.167999744	22.60099792	-3.280640364	5.960355759	59.04574203	1.0
674	-91.08300018	-5.167999744	22.60099792	-2.593814135	3.789128542	51.68474197	1.0
675	-91.08300018	-5.167999744	22.60099792	-1.565185547	2.30363822	39.41476059	1.0
[RightHandIndex2]
672	-36.76399994	0	0	-0.08285832405	-1.070773482	8.856916428	1.0
673	-36.76399994	0	0	-0.06655386835	-0.9607561231	7.94039011	1.0
674	-36.76399994	0	0	-0.04812695086	-0.8159496784	6.737497807	1.0
675	-36.76399994	0	0	-0.02904031426	-0.6338842511	5.229151249	1.0
[RightHandIndex3]
672	-28.83100128	0	0	-0.02283009887	0.5640946627	-4.651938438	1.0
673	-28.83100128	0	0	-0.01695464179	0.4858534932	-4.005576611	1.0
674	-28.83100128	0	0	-0.009372199886	0.3566194773	-2.939049006	1.0
675	-28.83100128	0	0	-0.003165062284	0.2111119032	-1.739242792	1.0
[RightHandIndex4]
672	-23.92700005	0	0	0	0	0	1.0
673	-23.92700005	0	0	0	0	0	1.0
674	-23.92700005	0	0	0	0	0	1.0
675	-23.92700005	0	0	0	0	0	1.0
[RightHandThumb1]
672	-24.64799881	-15.72700024	26.82600021	2.587286234	-10.3115778	-8.285822868	1.0
673	-24.64799881	-15.72700024	26.82600021	4.509208679	-10.63730907	-6.68416214	1.0
674	-24.64799881	-15.72700024	26.82600021	5.76143837	-11.03756332	-6.353013992	1.0
675	-24.64799881	-15.72700024	26.82600021	6.217680931	-11.72681999	-7.535500526	1.0
[RightHandThumb2]
672	-32.29800034	-18.64699936	18.64699936	6.792706966	-11.12654877	-1.367842197	1.0
673	-32.29800034	-18.64699936	18.64699936	6.560682774	-11.2474432	-1.339630604	1.0
674	-32.29800034	-18.64699936	18.64699936	5.7417593	-9.826784134	-0.8345336914	1.0
675	-32.29800034	-18.64699936	18.64699936	4.550626755	-7.212738037	-0.03084525838	1.0
[RightHandThumb3]
672	-26.52600098	-15.31399918	15.31399918	-1.531921387	-0.07432165742	-3.023398399	1.0
673	-26.52600098	-15.31399918	15.31399918	-1.166606069	-0.6651915908	-2.93484807	1.0
674	-26.52600098	-15.31399918	15.31399918	-1.309705615	-0.386482358	-2.859120369	1.0
675	-26.52600098	-15.31399918	15.31399918	-1.913454175	0.6736727357	-2.820778847	1.0
[RightHandThumb4]
672	-19.54599953	-11.28499985	11.28499985	0	0	0	1.0
673	-19.54599953	-11.28499985	11.28499985	0	0	0	1.0
674	-19.54599953	-11.28499985	11.28499985	0	0	0	1.0
675	-19.54599953	-11.28499985	11.28499985	0	0	0	1.0
[LeftUpLeg]
672	82.07800293	-67.51699829	-15.99599934	-4.092826366	-2.300600767	7.315188408	1.0
673	82.07800293	-67.51699829	-15.99599934	-4.938146591	1.916854143	3.969280958	1.0
674	82.07800293	-67.51699829	-15.99599934	-6.587792873	2.732474566	0.291764915	1.0
675	82.07800293	-67.51699829	-15.99599934	-8.790870667	3.718651533	-1.819139481	1.0
[LeftLeg]
672	0	-443.7049866	2.845999956	26.99754906	12.46015453	-5.359549522	1.0
673	0	-443.7049866	2.845999956	29.39226341	12.57211018	-5.064559937	1.0
674	0	-443.7049866	2.845999956	32.40602875	10.43711472	-5.742404938	1.0
675	0	-443.7049866	2.845999956	35.85118484	5.634385109	-8.674710274	1.0
[LeftFoot]
672	0	-444.2789917	-29.8219986	-17.93667412	4.278738499	3.544661999	1.0
673	0	-444.2789917	-29.8219986	-18.2532711	6.942155838	4.061194897	1.0
674	0	-444.2789917	-29.8219986	-18.62814331	13.27020645	3.907632113	1.0
675	0	-444.2789917	-29.8219986	-19.32929802	22.38017654	3.610879898	1.0
[LeftToeBase]
672	0	-87.28699493	107.1060028	-2.672623158	1.268008191e-06	3.053047521e-07	1.0
673	0	-87.28699493	107.1060028	-1.853879094	5.091177968e-07	-2.973631808e-06	1.0
674	0	-87.28699493	107.1060028	-1.414335608	3.688534434e-06	-1.770279937e-06	1.0
675	0	-87.28699493	107.1060028	-1.245211363	7.414889296e-06	2.644213282e-06	1.0
[RightUpLeg]
672	-82.07800293	-67.51699829	-15.99599934	-19.55147934	-5.378622532	-1.354448915	1.0
673	-82.07800293	-67.51699829	-15.99599934	-20.4455986	-7.502669811	-5.165150166	1.0
674	-82.07800293	-67.51699829	-15.99599934	-20.15912819	-7.540122032	-9.989008904	1.0
675	-82.07800293	-67.51699829	-15.99599934	-20.1770134	-5.465387344	-14.22056103	1.0
[RightLeg]
672	0	-443.7049866	2.861999989	1.424508333	-9.824522018	-4.999540806	1.0
673	0	-443.7049866	2.861999989	3.524683714	-9.619504929	-4.616069794	1.0
674	0	-443.7049866	2.861999989	5.988870621	-9.652738571	-3.916060209	1.0
675	0	-443.7049866	2.861999989	11.01463604	-9.972454071	-2.650182962	1.0
[RightFoot]
672	0	-444.2770081	-29.83799934	12.86352062	-20.62585449	25.59514618	1.0
673	0	-444.2770081	-29.83799934	11.69072723	-17.42412186	20.19549751	1.0
674	0	-444.2770081	-29.83799934	9.477815628	-18.32590675	11.68145561	1.0
675	0	-444.2770081	-29.83799934	5.610836983	-21.39439392	5.487689495	1.0
[RightToeBase]
672	0	-87.28699493	107.1060028	7.62139225	-0.004419899546	0.0479892455	1.0
673	0	-87.28699493	107.1060028	7.413071156	-3.006055749e-06	6.251826562e-06	1.0
674	0	-87.28699493	107.1060028	7.878499508	-6.792812428e-07	-1.301602879e-07	1.0
675	0	-87.28699493	107.1060028	7.836184978	1.002238696e-05	5.947711998e-06	1.0
[EndOfFile]
